<mxfile host="app.diagrams.net" modified="2024-12-15T19:24:16.795Z" agent="Mozilla/5.0 (X11; Linux x86_64; rv:133.0) Gecko/20100101 Firefox/133.0" etag="pg6ooy5wQusZ8VF2vRLn" version="24.0.5" type="device">
  <diagram name="Page-1" id="wxflUAgw1cvTMXej0PpW">
    <mxGraphModel dx="957" dy="432" grid="1" gridSize="10" guides="1" tooltips="1" connect="1" arrows="1" fold="1" page="1" pageScale="1" pageWidth="850" pageHeight="1100" math="0" shadow="0">
      <root>
        <mxCell id="0" />
        <mxCell id="1" parent="0" />
        <mxCell id="74ii_cWR7ScjIlB4rVwS-4" value="Screenshot_maker" style="html=1;whiteSpace=wrap;" vertex="1" parent="1">
          <mxGeometry x="90" y="240" width="110" height="50" as="geometry" />
        </mxCell>
        <mxCell id="74ii_cWR7ScjIlB4rVwS-6" value="Image_to_text" style="html=1;whiteSpace=wrap;" vertex="1" parent="1">
          <mxGeometry x="280" y="130" width="110" height="50" as="geometry" />
        </mxCell>
        <mxCell id="74ii_cWR7ScjIlB4rVwS-8" value="image" style="html=1;verticalAlign=bottom;endArrow=block;curved=0;rounded=0;entryX=0;entryY=0.5;entryDx=0;entryDy=0;" edge="1" parent="1" target="74ii_cWR7ScjIlB4rVwS-6">
          <mxGeometry x="-0.0567" y="22" width="80" relative="1" as="geometry">
            <mxPoint x="200" y="264.66" as="sourcePoint" />
            <mxPoint x="280" y="264.66" as="targetPoint" />
            <mxPoint as="offset" />
          </mxGeometry>
        </mxCell>
        <mxCell id="74ii_cWR7ScjIlB4rVwS-10" value="text" style="html=1;verticalAlign=bottom;endArrow=block;curved=0;rounded=0;entryX=0;entryY=0.5;entryDx=0;entryDy=0;" edge="1" parent="1" target="74ii_cWR7ScjIlB4rVwS-12">
          <mxGeometry x="-0.3493" y="15" width="80" relative="1" as="geometry">
            <mxPoint x="600" y="259.66" as="sourcePoint" />
            <mxPoint x="670" y="205" as="targetPoint" />
            <mxPoint as="offset" />
          </mxGeometry>
        </mxCell>
        <mxCell id="74ii_cWR7ScjIlB4rVwS-12" value="clipboard manager" style="html=1;whiteSpace=wrap;" vertex="1" parent="1">
          <mxGeometry x="690" y="165" width="110" height="50" as="geometry" />
        </mxCell>
        <mxCell id="74ii_cWR7ScjIlB4rVwS-13" value="LLM" style="html=1;whiteSpace=wrap;" vertex="1" parent="1">
          <mxGeometry x="690" y="315" width="110" height="50" as="geometry" />
        </mxCell>
        <mxCell id="74ii_cWR7ScjIlB4rVwS-16" value="text" style="html=1;verticalAlign=bottom;endArrow=block;curved=0;rounded=0;entryX=0;entryY=0.5;entryDx=0;entryDy=0;" edge="1" parent="1" target="74ii_cWR7ScjIlB4rVwS-13">
          <mxGeometry x="0.2024" y="-36" width="80" relative="1" as="geometry">
            <mxPoint x="600" y="259.71" as="sourcePoint" />
            <mxPoint x="670" y="305" as="targetPoint" />
            <mxPoint as="offset" />
          </mxGeometry>
        </mxCell>
        <mxCell id="74ii_cWR7ScjIlB4rVwS-17" value="Yandex-api" style="html=1;whiteSpace=wrap;" vertex="1" parent="1">
          <mxGeometry x="280" y="340" width="110" height="50" as="geometry" />
        </mxCell>
        <mxCell id="74ii_cWR7ScjIlB4rVwS-18" value="image" style="html=1;verticalAlign=bottom;endArrow=block;curved=0;rounded=0;entryX=-0.004;entryY=0.606;entryDx=0;entryDy=0;entryPerimeter=0;" edge="1" parent="1" target="74ii_cWR7ScjIlB4rVwS-17">
          <mxGeometry x="0.1132" y="-29" width="80" relative="1" as="geometry">
            <mxPoint x="200" y="264.71" as="sourcePoint" />
            <mxPoint x="280" y="264.71" as="targetPoint" />
            <mxPoint as="offset" />
          </mxGeometry>
        </mxCell>
        <mxCell id="74ii_cWR7ScjIlB4rVwS-19" value="Text_Processor" style="html=1;whiteSpace=wrap;" vertex="1" parent="1">
          <mxGeometry x="490" y="240" width="110" height="50" as="geometry" />
        </mxCell>
        <mxCell id="74ii_cWR7ScjIlB4rVwS-20" value="text" style="html=1;verticalAlign=bottom;endArrow=block;curved=0;rounded=0;entryX=0;entryY=0.5;entryDx=0;entryDy=0;" edge="1" parent="1" target="74ii_cWR7ScjIlB4rVwS-19">
          <mxGeometry x="-0.0464" y="-18" width="80" relative="1" as="geometry">
            <mxPoint x="390" y="365" as="sourcePoint" />
            <mxPoint x="480" y="265" as="targetPoint" />
            <mxPoint as="offset" />
          </mxGeometry>
        </mxCell>
        <mxCell id="74ii_cWR7ScjIlB4rVwS-21" value="text" style="html=1;verticalAlign=bottom;endArrow=block;curved=0;rounded=0;entryX=0;entryY=0.5;entryDx=0;entryDy=0;" edge="1" parent="1">
          <mxGeometry x="0.0702" y="9" width="80" relative="1" as="geometry">
            <mxPoint x="390" y="160" as="sourcePoint" />
            <mxPoint x="490" y="265" as="targetPoint" />
            <mxPoint as="offset" />
          </mxGeometry>
        </mxCell>
      </root>
    </mxGraphModel>
  </diagram>
</mxfile>
